<?xml version="1.0" encoding="UTF-8"?> <svg xmlns="http://www.w3.org/2000/svg" width="941" height="196" viewBox="0 0 941 196" fill="none"><path d="M727.5 0C726.948 0 726.5 0.447715 726.5 1C726.5 1.55228 726.948 2 727.5 2V0ZM6 196L11.7735 186H0.226497L6 196ZM727.5 2H926V0H727.5V2ZM941 131.43V15H939V131.43H941ZM926 144.43H20V146.43H926V144.43ZM5 159.43V187H7V159.43H5ZM20 144.43C11.7158 144.43 5 151.146 5 159.43H7C7 152.25 12.8203 146.43 20 146.43V144.43ZM939 131.43C939 138.61 933.18 144.43 926 144.43V146.43C934.284 146.43 941 139.714 941 131.43H939ZM926 2C933.18 2 939 7.82032 939 15H941C941 6.71575 934.284 0 926 0V2Z" fill="#000917"></path></svg> 