<?xml version="1.0" encoding="UTF-8"?> <svg xmlns="http://www.w3.org/2000/svg" width="251" height="110" viewBox="0 0 251 110" fill="none"><path d="M167 0.5C166.724 0.5 166.5 0.723858 166.5 1C166.5 1.27614 166.724 1.5 167 1.5V0.5ZM3 110L5.88675 105H0.113249L3 110ZM167 1.5H245V0.5H167V1.5ZM250.5 92V6H249.5V92H250.5ZM8 97.5H245V96.5H8V97.5ZM2.5 102V105.5H3.5V102H2.5ZM8 96.5C4.96243 96.5 2.5 98.9624 2.5 102H3.5C3.5 99.5147 5.51472 97.5 8 97.5V96.5ZM249.5 92C249.5 94.4853 247.485 96.5 245 96.5V97.5C248.038 97.5 250.5 95.0376 250.5 92H249.5ZM245 1.5C247.485 1.5 249.5 3.51472 249.5 6H250.5C250.5 2.96243 248.038 0.5 245 0.5V1.5Z" fill="#000917"></path></svg> 